# This file uses centimeters as units for non-parametric coordinates.

mtllib kol3.mtl
g default
v -87.466809 148.596938 -27.897538
v -88.022124 147.499455 -28.128514
v -88.848095 146.640723 -28.511323
v -89.863872 146.104799 -29.008492
v -90.970022 145.944145 -29.571355
v -92.058269 146.174485 -30.144815
v -93.022086 146.773273 -30.672738
v -93.767128 147.681895 -31.103447
v -94.220467 148.811409 -31.394781
v -94.337725 150.051250 -31.518222
v -94.107426 151.280053 -31.461687
v -93.552111 152.377536 -31.230711
v -92.726140 153.236268 -30.847902
v -91.710364 153.772191 -30.350733
v -90.604214 153.932846 -29.787871
v -89.515968 153.702505 -29.214411
v -88.552151 153.103718 -28.686488
v -87.807109 152.195096 -28.255780
v -87.353770 151.065583 -27.964446
v -87.236512 149.825742 -27.841004
v -78.302012 147.696101 -45.651269
v -78.857326 146.598618 -45.882246
v -79.683298 145.739886 -46.265055
v -80.699075 145.203962 -46.762224
v -81.805225 145.043308 -47.325087
v -82.893471 145.273648 -47.898547
v -83.857288 145.872436 -48.426469
v -84.602331 146.781058 -48.857178
v -85.055669 147.910572 -49.148512
v -85.172928 149.150413 -49.271953
v -84.942628 150.379216 -49.215419
v -84.387314 151.476699 -48.984442
v -83.561342 152.335431 -48.601634
v -82.545566 152.871354 -48.104465
v -81.439416 153.032009 -47.541602
v -80.351170 152.801668 -46.968142
v -79.387354 152.202881 -46.440220
v -78.642311 151.294259 -46.009511
v -78.188973 150.164746 -45.718177
v -78.071714 148.924905 -45.594736
v -90.787118 149.938496 -29.679613
v -81.622320 149.037659 -47.433344
vt 0.648603 0.107966
vt 0.626409 0.064408
vt 0.591842 0.029841
vt 0.548284 0.007647
vt 0.500000 -0.000000
vt 0.451716 0.007647
vt 0.408159 0.029841
vt 0.373591 0.064409
vt 0.351397 0.107966
vt 0.343750 0.156250
vt 0.351397 0.204534
vt 0.373591 0.248091
vt 0.408159 0.282659
vt 0.451716 0.304853
vt 0.500000 0.312500
vt 0.548284 0.304853
vt 0.591841 0.282659
vt 0.626409 0.248091
vt 0.648603 0.204534
vt 0.656250 0.156250
vt 0.375000 0.312500
vt 0.387500 0.312500
vt 0.400000 0.312500
vt 0.412500 0.312500
vt 0.425000 0.312500
vt 0.437500 0.312500
vt 0.450000 0.312500
vt 0.462500 0.312500
vt 0.475000 0.312500
vt 0.487500 0.312500
vt 0.500000 0.312500
vt 0.512500 0.312500
vt 0.525000 0.312500
vt 0.537500 0.312500
vt 0.550000 0.312500
vt 0.562500 0.312500
vt 0.575000 0.312500
vt 0.587500 0.312500
vt 0.600000 0.312500
vt 0.612500 0.312500
vt 0.625000 0.312500
vt 0.375000 0.688440
vt 0.387500 0.688440
vt 0.400000 0.688440
vt 0.412500 0.688440
vt 0.425000 0.688440
vt 0.437500 0.688440
vt 0.450000 0.688440
vt 0.462500 0.688440
vt 0.475000 0.688440
vt 0.487500 0.688440
vt 0.500000 0.688440
vt 0.512500 0.688440
vt 0.525000 0.688440
vt 0.537500 0.688440
vt 0.550000 0.688440
vt 0.562500 0.688440
vt 0.575000 0.688440
vt 0.587500 0.688440
vt 0.600000 0.688440
vt 0.612500 0.688440
vt 0.625000 0.688440
vt 0.648603 0.795466
vt 0.626409 0.751908
vt 0.591842 0.717341
vt 0.548284 0.695147
vt 0.500000 0.687500
vt 0.451716 0.695147
vt 0.408159 0.717341
vt 0.373591 0.751909
vt 0.351397 0.795466
vt 0.343750 0.843750
vt 0.351397 0.892034
vt 0.373591 0.935591
vt 0.408159 0.970159
vt 0.451716 0.992353
vt 0.500000 1.000000
vt 0.548284 0.992353
vt 0.591841 0.970159
vt 0.626409 0.935591
vt 0.648603 0.892034
vt 0.656250 0.843750
vt 0.500000 0.150000
vt 0.500000 0.837500
vn 0.830077 -0.335388 0.445519
vn 0.691248 -0.609760 0.387774
vn 0.691248 -0.609760 0.387774
vn 0.830077 -0.335388 0.445519
vn 0.484755 -0.824443 0.292072
vn 0.484755 -0.824443 0.292072
vn 0.230811 -0.958424 0.167780
vn 0.230811 -0.958424 0.167780
vn -0.045726 -0.998587 0.027064
vn -0.045726 -0.998587 0.027064
vn -0.317788 -0.941002 -0.116301
vn -0.317788 -0.941002 -0.116301
vn -0.558742 -0.791305 -0.248281
vn -0.558742 -0.791305 -0.248281
vn -0.745002 -0.564150 -0.355958
vn -0.745002 -0.564150 -0.355958
vn -0.858337 -0.281772 -0.428792
vn -0.858337 -0.281772 -0.428792
vn -0.887652 0.028188 -0.459652
vn -0.887652 0.028188 -0.459652
vn -0.830077 0.335389 -0.445519
vn -0.830077 0.335389 -0.445519
vn -0.691248 0.609760 -0.387774
vn -0.691248 0.609760 -0.387774
vn -0.484755 0.824443 -0.292072
vn -0.484755 0.824443 -0.292072
vn -0.230811 0.958424 -0.167780
vn -0.230811 0.958424 -0.167780
vn 0.045726 0.998587 -0.027064
vn 0.045726 0.998587 -0.027064
vn 0.317788 0.941002 0.116301
vn 0.317788 0.941002 0.116301
vn 0.558742 0.791305 0.248281
vn 0.558742 0.791305 0.248281
vn 0.745002 0.564150 0.355958
vn 0.745002 0.564150 0.355958
vn 0.858337 0.281772 0.428792
vn 0.858337 0.281772 0.428792
vn 0.887652 -0.028187 0.459652
vn 0.887652 -0.028187 0.459652
vn -0.458240 0.045042 0.887687
vn -0.458240 0.045042 0.887687
vn -0.458240 0.045042 0.887687
vn -0.458240 0.045042 0.887687
vn -0.458240 0.045042 0.887687
vn -0.458240 0.045042 0.887687
vn -0.458240 0.045042 0.887687
vn -0.458240 0.045042 0.887687
vn -0.458240 0.045042 0.887687
vn -0.458240 0.045042 0.887687
vn -0.458240 0.045042 0.887687
vn -0.458240 0.045042 0.887687
vn -0.458240 0.045042 0.887687
vn -0.458240 0.045042 0.887687
vn -0.458240 0.045042 0.887687
vn -0.458240 0.045042 0.887687
vn -0.458240 0.045042 0.887687
vn -0.458240 0.045042 0.887687
vn -0.458240 0.045042 0.887687
vn -0.458240 0.045042 0.887687
vn -0.458240 0.045042 0.887687
vn 0.458240 -0.045042 -0.887687
vn 0.458240 -0.045042 -0.887687
vn 0.458240 -0.045042 -0.887687
vn 0.458240 -0.045042 -0.887687
vn 0.458240 -0.045042 -0.887687
vn 0.458240 -0.045042 -0.887687
vn 0.458240 -0.045042 -0.887687
vn 0.458240 -0.045042 -0.887687
vn 0.458240 -0.045042 -0.887687
vn 0.458240 -0.045042 -0.887687
vn 0.458240 -0.045042 -0.887687
vn 0.458240 -0.045042 -0.887687
vn 0.458240 -0.045042 -0.887687
vn 0.458240 -0.045042 -0.887687
vn 0.458240 -0.045042 -0.887687
vn 0.458240 -0.045042 -0.887687
vn 0.458240 -0.045042 -0.887687
vn 0.458240 -0.045042 -0.887687
vn 0.458240 -0.045042 -0.887687
vn 0.458240 -0.045042 -0.887687
vn 0.458240 -0.045042 -0.887687
s 1
g pCylinder5 group42
usemtl initialShadingGroup
f 1/21/1 2/22/2 22/43/3 21/42/4
f 2/22/2 3/23/5 23/44/6 22/43/3
f 3/23/5 4/24/7 24/45/8 23/44/6
f 4/24/7 5/25/9 25/46/10 24/45/8
f 5/25/9 6/26/11 26/47/12 25/46/10
f 6/26/11 7/27/13 27/48/14 26/47/12
f 7/27/13 8/28/15 28/49/16 27/48/14
f 8/28/15 9/29/17 29/50/18 28/49/16
f 9/29/17 10/30/19 30/51/20 29/50/18
f 10/30/19 11/31/21 31/52/22 30/51/20
f 11/31/21 12/32/23 32/53/24 31/52/22
f 12/32/23 13/33/25 33/54/26 32/53/24
f 13/33/25 14/34/27 34/55/28 33/54/26
f 14/34/27 15/35/29 35/56/30 34/55/28
f 15/35/29 16/36/31 36/57/32 35/56/30
f 16/36/31 17/37/33 37/58/34 36/57/32
f 17/37/33 18/38/35 38/59/36 37/58/34
f 18/38/35 19/39/37 39/60/38 38/59/36
f 19/39/37 20/40/39 40/61/40 39/60/38
f 20/40/39 1/41/1 21/62/4 40/61/40
s 2
f 2/2/41 1/1/42 41/83/43
f 3/3/44 2/2/41 41/83/43
f 4/4/45 3/3/44 41/83/43
f 5/5/46 4/4/45 41/83/43
f 6/6/47 5/5/46 41/83/43
f 7/7/48 6/6/47 41/83/43
f 8/8/49 7/7/48 41/83/43
f 9/9/50 8/8/49 41/83/43
f 10/10/51 9/9/50 41/83/43
f 11/11/52 10/10/51 41/83/43
f 12/12/53 11/11/52 41/83/43
f 13/13/54 12/12/53 41/83/43
f 14/14/55 13/13/54 41/83/43
f 15/15/56 14/14/55 41/83/43
f 16/16/57 15/15/56 41/83/43
f 17/17/58 16/16/57 41/83/43
f 18/18/59 17/17/58 41/83/43
f 19/19/60 18/18/59 41/83/43
f 20/20/61 19/19/60 41/83/43
f 1/1/42 20/20/61 41/83/43
s 3
f 21/81/62 22/80/63 42/84/64
f 22/80/63 23/79/65 42/84/64
f 23/79/65 24/78/66 42/84/64
f 24/78/66 25/77/67 42/84/64
f 25/77/67 26/76/68 42/84/64
f 26/76/68 27/75/69 42/84/64
f 27/75/69 28/74/70 42/84/64
f 28/74/70 29/73/71 42/84/64
f 29/73/71 30/72/72 42/84/64
f 30/72/72 31/71/73 42/84/64
f 31/71/73 32/70/74 42/84/64
f 32/70/74 33/69/75 42/84/64
f 33/69/75 34/68/76 42/84/64
f 34/68/76 35/67/77 42/84/64
f 35/67/77 36/66/78 42/84/64
f 36/66/78 37/65/79 42/84/64
f 37/65/79 38/64/80 42/84/64
f 38/64/80 39/63/81 42/84/64
f 39/63/81 40/82/82 42/84/64
f 40/82/82 21/81/62 42/84/64
